HIERARCHY
ROOT mixamorig:Hips
{
	OFFSET -0.000008 104.274872 1.554316
	CHANNELS 6 Xposition Yposition Zposition Xrotation Yrotation Zrotation
	JOINT mixamorig:Spine
	{
		OFFSET -0.000005 10.181587 0.131521
		CHANNELS 6 Xposition Yposition Zposition Xrotation Yrotation Zrotation
		JOINT mixamorig:Spine1
		{
			OFFSET -0.000000 9.893967 -1.470711
			CHANNELS 3 Xrotation Yrotation Zrotation
			JOINT mixamorig:Spine2
			{
				OFFSET -0.000000 9.220772 -1.370643
				CHANNELS 3 Xrotation Yrotation Zrotation
				JOINT mixamorig:Neck
				{
					OFFSET 0.000001 16.740387 -2.049035
					CHANNELS 6 Xposition Yposition Zposition Xrotation Yrotation Zrotation
					JOINT mixamorig:Head
					{
						OFFSET 0.000000 9.617889 1.685008
						CHANNELS 6 Xposition Yposition Zposition Xrotation Yrotation Zrotation
						JOINT mixamorig:HeadTop_End
						{
							OFFSET 0.000002 22.037369 7.501095
							CHANNELS 6 Xposition Yposition Zposition Xrotation Yrotation Zrotation
							End Site
							{
								OFFSET 0.000002 23.106552 -2.828258
							}
						}
					}
				}
				JOINT mixamorig:RightShoulder
				{
					OFFSET -4.569969 11.014908 -2.160884
					CHANNELS 6 Xposition Yposition Zposition Xrotation Yrotation Zrotation
					JOINT mixamorig:RightArm
					{
						OFFSET -10.592846 -0.524811 -2.232097
						CHANNELS 3 Xrotation Yrotation Zrotation
						JOINT mixamorig:RightForeArm
						{
							OFFSET -27.841518 0.000000 -0.000004
							CHANNELS 3 Xrotation Yrotation Zrotation
							JOINT mixamorig:RightHand
							{
								OFFSET -28.328838 0.000000 0.000019
								CHANNELS 3 Xrotation Yrotation Zrotation
								JOINT mixamorig:RightHandThumb1
								{
									OFFSET -2.464806 -1.573990 2.681852
									CHANNELS 6 Xposition Yposition Zposition Xrotation Yrotation Zrotation
									JOINT mixamorig:RightHandThumb2
									{
										OFFSET -3.215187 -1.872772 1.924281
										CHANNELS 3 Xrotation Yrotation Zrotation
										JOINT mixamorig:RightHandThumb3
										{
											OFFSET -2.654839 -1.527985 1.512611
											CHANNELS 3 Xrotation Yrotation Zrotation
											JOINT mixamorig:RightHandThumb4
											{
												OFFSET -2.018822 -1.152008 1.108052
												CHANNELS 3 Xrotation Yrotation Zrotation
												End Site
												{
													OFFSET -1.888100 -1.145340 1.324313
												}
											}
										}
									}
								}
								JOINT mixamorig:RightHandIndex1
								{
									OFFSET -9.108284 -0.517868 2.259834
									CHANNELS 6 Xposition Yposition Zposition Xrotation Yrotation Zrotation
									JOINT mixamorig:RightHandIndex2
									{
										OFFSET -3.699997 0.000015 0.001215
										CHANNELS 3 Xrotation Yrotation Zrotation
										JOINT mixamorig:RightHandIndex3
										{
											OFFSET -2.850006 0.000000 -0.000521
											CHANNELS 3 Xrotation Yrotation Zrotation
											JOINT mixamorig:RightHandIndex4
											{
												OFFSET -2.772186 0.000000 -0.000020
												CHANNELS 3 Xrotation Yrotation Zrotation
												End Site
												{
													OFFSET -2.772186 0.000000 -0.000502
												}
											}
										}
									}
								}
								JOINT mixamorig:RightHandMiddle1
								{
									OFFSET -9.532501 -0.000046 -0.000025
									CHANNELS 6 Xposition Yposition Zposition Xrotation Yrotation Zrotation
									JOINT mixamorig:RightHandMiddle2
									{
										OFFSET -3.699997 0.000015 0.003713
										CHANNELS 3 Xrotation Yrotation Zrotation
										JOINT mixamorig:RightHandMiddle3
										{
											OFFSET -2.949997 0.000000 -0.002054
											CHANNELS 3 Xrotation Yrotation Zrotation
											JOINT mixamorig:RightHandMiddle4
											{
												OFFSET -2.946632 0.000015 -0.000155
												CHANNELS 3 Xrotation Yrotation Zrotation
												End Site
												{
													OFFSET -2.946625 0.000000 -0.001135
												}
											}
										}
									}
								}
								JOINT mixamorig:RightHandRing1
								{
									OFFSET -9.103592 -0.043076 -1.865134
									CHANNELS 6 Xposition Yposition Zposition Xrotation Yrotation Zrotation
									JOINT mixamorig:RightHandRing2
									{
										OFFSET -3.379272 0.000000 -0.001054
										CHANNELS 3 Xrotation Yrotation Zrotation
										JOINT mixamorig:RightHandRing3
										{
											OFFSET -2.889687 0.000000 0.000379
											CHANNELS 3 Xrotation Yrotation Zrotation
											JOINT mixamorig:RightHandRing4
											{
												OFFSET -2.638817 0.000000 0.000942
												CHANNELS 3 Xrotation Yrotation Zrotation
												End Site
												{
													OFFSET -2.638802 0.000000 0.005160
												}
											}
										}
									}
								}
								JOINT mixamorig:RightHandPinky1
								{
									OFFSET -8.076675 -0.486710 -3.806279
									CHANNELS 6 Xposition Yposition Zposition Xrotation Yrotation Zrotation
									JOINT mixamorig:RightHandPinky2
									{
										OFFSET -3.599998 -0.000031 -0.003747
										CHANNELS 3 Xrotation Yrotation Zrotation
										JOINT mixamorig:RightHandPinky3
										{
											OFFSET -2.099991 -0.000015 -0.005740
											CHANNELS 3 Xrotation Yrotation Zrotation
											JOINT mixamorig:RightHandPinky4
											{
												OFFSET -2.115776 -0.000015 -0.003680
												CHANNELS 3 Xrotation Yrotation Zrotation
												End Site
												{
													OFFSET -2.115784 -0.000015 -0.003507
												}
											}
										}
									}
								}
							}
						}
					}
				}
				JOINT mixamorig:LeftShoulder
				{
					OFFSET 4.570447 11.014709 -2.160855
					CHANNELS 6 Xposition Yposition Zposition Xrotation Yrotation Zrotation
					JOINT mixamorig:LeftArm
					{
						OFFSET 10.592369 -0.524597 -2.232120
						CHANNELS 3 Xrotation Yrotation Zrotation
						JOINT mixamorig:LeftForeArm
						{
							OFFSET 27.841522 -0.000031 0.000023
							CHANNELS 3 Xrotation Yrotation Zrotation
							JOINT mixamorig:LeftHand
							{
								OFFSET 28.328835 -0.000031 0.000018
								CHANNELS 3 Xrotation Yrotation Zrotation
								JOINT mixamorig:LeftHandThumb1
								{
									OFFSET 2.466141 -1.576187 2.681734
									CHANNELS 6 Xposition Yposition Zposition Xrotation Yrotation Zrotation
									JOINT mixamorig:LeftHandThumb2
									{
										OFFSET 3.217804 -1.872055 1.916487
										CHANNELS 3 Xrotation Yrotation Zrotation
										JOINT mixamorig:LeftHandThumb3
										{
											OFFSET 2.656013 -1.528809 1.514505
											CHANNELS 3 Xrotation Yrotation Zrotation
											JOINT mixamorig:LeftHandThumb4
											{
												OFFSET 2.020889 -1.154068 1.115134
												CHANNELS 3 Xrotation Yrotation Zrotation
												End Site
												{
													OFFSET 1.908852 -1.150833 1.300489
												}
											}
										}
									}
								}
								JOINT mixamorig:LeftHandIndex1
								{
									OFFSET 9.109306 -0.518036 2.259871
									CHANNELS 6 Xposition Yposition Zposition Xrotation Yrotation Zrotation
									JOINT mixamorig:LeftHandIndex2
									{
										OFFSET 3.699997 -0.000015 -0.000323
										CHANNELS 3 Xrotation Yrotation Zrotation
										JOINT mixamorig:LeftHandIndex3
										{
											OFFSET 2.850006 -0.000015 0.000350
											CHANNELS 3 Xrotation Yrotation Zrotation
											JOINT mixamorig:LeftHandIndex4
											{
												OFFSET 2.774864 0.000000 -0.000027
												CHANNELS 3 Xrotation Yrotation Zrotation
												End Site
												{
													OFFSET 2.774872 -0.000015 -0.000099
												}
											}
										}
									}
								}
								JOINT mixamorig:LeftHandMiddle1
								{
									OFFSET 9.533401 0.000031 0.000044
									CHANNELS 6 Xposition Yposition Zposition Xrotation Yrotation Zrotation
									JOINT mixamorig:LeftHandMiddle2
									{
										OFFSET 3.699997 -0.000015 -0.000231
										CHANNELS 3 Xrotation Yrotation Zrotation
										JOINT mixamorig:LeftHandMiddle3
										{
											OFFSET 2.950005 0.000000 -0.000060
											CHANNELS 3 Xrotation Yrotation Zrotation
											JOINT mixamorig:LeftHandMiddle4
											{
												OFFSET 2.952858 0.000000 0.000063
												CHANNELS 3 Xrotation Yrotation Zrotation
												End Site
												{
													OFFSET 2.952866 0.000000 0.000228
												}
											}
										}
									}
								}
								JOINT mixamorig:LeftHandRing1
								{
									OFFSET 9.104530 -0.043030 -1.865074
									CHANNELS 6 Xposition Yposition Zposition Xrotation Yrotation Zrotation
									JOINT mixamorig:LeftHandRing2
									{
										OFFSET 3.150002 -0.000015 0.000042
										CHANNELS 3 Xrotation Yrotation Zrotation
										JOINT mixamorig:LeftHandRing3
										{
											OFFSET 2.949997 0.000000 0.000037
											CHANNELS 3 Xrotation Yrotation Zrotation
											JOINT mixamorig:LeftHandRing4
											{
												OFFSET 2.644318 -0.000015 0.000059
												CHANNELS 3 Xrotation Yrotation Zrotation
												End Site
												{
													OFFSET 2.644318 0.000000 0.000121
												}
											}
										}
									}
								}
								JOINT mixamorig:LeftHandPinky1
								{
									OFFSET 8.077782 -0.486877 -3.806256
									CHANNELS 6 Xposition Yposition Zposition Xrotation Yrotation Zrotation
									JOINT mixamorig:LeftHandPinky2
									{
										OFFSET 3.599968 0.000031 0.014726
										CHANNELS 3 Xrotation Yrotation Zrotation
										JOINT mixamorig:LeftHandPinky3
										{
											OFFSET 2.099991 0.000015 0.007705
											CHANNELS 3 Xrotation Yrotation Zrotation
											JOINT mixamorig:LeftHandPinky4
											{
												OFFSET 2.125511 0.000015 0.007514
												CHANNELS 3 Xrotation Yrotation Zrotation
												End Site
												{
													OFFSET 2.125526 0.000015 0.006258
												}
											}
										}
									}
								}
							}
						}
					}
				}
			}
		}
	}
	JOINT mixamorig:RightUpLeg
	{
		OFFSET -8.207787 -6.751671 -1.599560
		CHANNELS 6 Xposition Yposition Zposition Xrotation Yrotation Zrotation
		JOINT mixamorig:RightLeg
		{
			OFFSET -0.000001 -44.370113 0.345939
			CHANNELS 3 Xrotation Yrotation Zrotation
			JOINT mixamorig:RightFoot
			{
				OFFSET 0.000001 -44.423676 -3.043536
				CHANNELS 3 Xrotation Yrotation Zrotation
				JOINT mixamorig:RightToeBase
				{
					OFFSET -0.000003 -8.728670 10.710561
					CHANNELS 3 Xrotation Yrotation Zrotation
					JOINT mixamorig:RightToe_End
					{
						OFFSET -0.000003 -0.000677 9.278120
						CHANNELS 3 Xrotation Yrotation Zrotation
						End Site
						{
							OFFSET -0.000003 -0.000677 9.278120
						}
					}
				}
			}
		}
	}
	JOINT mixamorig:LeftUpLeg
	{
		OFFSET 8.207791 -6.751701 -1.599555
		CHANNELS 6 Xposition Yposition Zposition Xrotation Yrotation Zrotation
		JOINT mixamorig:LeftLeg
		{
			OFFSET -0.000002 -44.370033 0.346958
			CHANNELS 3 Xrotation Yrotation Zrotation
			JOINT mixamorig:LeftFoot
			{
				OFFSET 0.000000 -44.423653 -3.044392
				CHANNELS 3 Xrotation Yrotation Zrotation
				JOINT mixamorig:LeftToeBase
				{
					OFFSET -0.000003 -8.728668 10.710560
					CHANNELS 3 Xrotation Yrotation Zrotation
					JOINT mixamorig:LeftToe_End
					{
						OFFSET -0.000003 -0.000677 9.278137
						CHANNELS 3 Xrotation Yrotation Zrotation
						End Site
						{
							OFFSET -0.000003 -0.000677 9.278137
						}
					}
				}
			}
		}
	}
}
MOTION
Frames: 4
Frame Time: 0.033333
5.290720 101.913834 2.881382 -0.195689 11.014089 -4.968806 -0.000005 10.181571 0.131520 1.604775 -2.750669 2.428651 1.451918 -2.743624 4.810422 1.428646 -2.229336 4.714567 0.000002 16.740404 -2.049034 5.329634 -3.771710 -6.020296 0.000001 9.617863 1.685016 36.705645 -13.888372 2.235084 -0.000002 22.037354 7.501113 -0.000002 0.000000 0.000001 -4.569969 11.014933 -2.160884 2.201885 3.277090 1.366611 36.483397 -14.504817 67.303113 0.000019 117.946111 -0.000009 3.750982 26.488735 -24.556436 -2.464810 -1.573995 2.681865 18.671772 -0.303972 -11.105045 0.926934 -31.768928 3.264702 1.625903 -7.722556 1.317056 -0.000003 0.000002 0.000000 -9.108287 -0.517869 2.259847 0.342753 -4.694272 7.844128 0.383360 -2.795076 20.565911 -0.193216 -0.226540 13.843904 -0.000001 0.000001 0.000000 -9.532509 -0.000044 -0.000019 0.927364 -8.822597 15.817958 0.898726 -3.903210 33.429801 0.215895 -1.726744 15.906486 -0.000001 0.000003 -0.000000 -9.103588 -0.043085 -1.865119 2.545366 -11.654509 26.895002 1.717095 -3.912037 40.236863 -0.151618 0.022696 17.820691 0.000001 -0.000001 0.000000 -8.076689 -0.486715 -3.806270 5.545280 -15.980320 36.930317 1.266869 -4.028230 45.642148 -0.765335 -0.312878 22.128951 -0.000000 0.000002 -0.000003 4.570456 11.014741 -2.160854 -1.343411 -21.254533 -23.852773 -12.701749 -27.093067 -16.860440 0.000044 -138.207061 0.000144 -36.493479 9.188179 20.762119 2.466144 -1.576207 2.681715 18.639658 0.201067 11.067473 0.957403 31.893046 -3.237410 1.818107 8.673912 -0.462080 -0.000006 0.000003 0.000002 9.109336 -0.518052 2.259861 1.225122 7.023758 -32.942405 1.764689 4.933062 -45.668745 0.920146 3.165175 -35.208703 -0.000001 -0.000002 0.000002 9.533426 0.000009 0.000031 2.691525 10.475091 -41.108019 2.680738 5.756183 -58.626785 1.278139 3.712309 -37.338025 -0.000000 -0.000005 -0.000003 9.104551 -0.043050 -1.865098 5.271516 12.291878 -52.380594 3.845875 5.190973 -65.535645 2.043748 3.789131 -44.407933 0.000001 0.000002 0.000002 8.077806 -0.486900 -3.806275 7.690843 17.805108 -62.582182 3.588546 5.404496 -70.813865 2.129581 4.788448 -45.639990 -0.000003 -0.000003 -0.000002 -8.207788 -6.751675 -1.599559 -1.571639 -3.964822 8.082188 12.394460 -5.817273 3.402506 -11.428418 -8.532539 -5.594961 -0.504225 -0.000003 -0.000000 0.000000 0.000001 -0.000000 8.207789 -6.751710 -1.599556 -21.528799 11.783945 12.185924 24.749708 0.435511 1.846433 -3.088894 2.998001 -3.664485 -1.670628 0.000001 -0.000002 -0.000000 -0.000000 -0.000000 
5.229709 101.915993 2.926202 -0.269012 11.035689 -4.957604 -0.000005 10.181593 0.131520 1.587378 -2.716974 2.460839 1.413251 -2.685138 4.866186 1.389720 -2.170754 4.770322 0.000000 16.740391 -2.049034 5.335477 -3.733794 -6.101410 0.000000 9.617884 1.685016 37.123485 -13.853966 2.278994 -0.000001 22.037354 7.501077 0.000000 0.000000 0.000001 -4.569970 11.014905 -2.160885 2.234503 3.319153 1.062069 36.873207 -13.583003 68.049796 -0.000005 116.856996 -0.000012 2.212307 23.417800 -21.600318 -2.464810 -1.573983 2.681840 18.671792 -0.303974 -11.105030 0.926925 -31.768914 3.264686 1.625875 -7.722570 1.317039 0.000000 -0.000001 -0.000001 -9.108288 -0.517872 2.259821 0.342758 -4.694291 7.844133 0.383347 -2.795069 20.565915 -0.193207 -0.226544 13.843900 0.000003 0.000000 0.000002 -9.532515 -0.000045 -0.000036 0.927349 -8.822613 15.817936 0.898741 -3.903195 33.429760 0.215881 -1.726743 15.906493 0.000001 0.000003 -0.000001 -9.103605 -0.043064 -1.865138 2.545352 -11.654491 26.895005 1.717096 -3.912054 40.236853 -0.151613 0.022698 17.820689 -0.000001 0.000001 -0.000002 -8.076694 -0.486714 -3.806295 5.545281 -15.980334 36.930307 1.266855 -4.028233 45.642172 -0.765325 -0.312872 22.128942 0.000000 0.000006 -0.000006 4.570454 11.014693 -2.160856 -1.393655 -21.721537 -23.945434 -14.093622 -27.457405 -17.107804 0.000040 -139.399462 0.000135 -36.658991 13.065015 18.300269 2.466104 -1.576212 2.681722 18.639677 0.201065 11.067479 0.957398 31.893036 -3.237410 1.818106 8.673918 -0.462082 -0.000004 -0.000005 0.000003 9.109306 -0.518047 2.259864 1.221532 7.023344 -32.943908 1.764783 4.933185 -45.670255 0.920229 3.165306 -35.210240 -0.000001 0.000002 -0.000007 9.533423 0.000009 0.000033 2.692660 10.476321 -41.110297 2.680648 5.756140 -58.625699 1.278267 3.712473 -37.339907 -0.000000 0.000008 -0.000000 9.104532 -0.043050 -1.865081 5.274783 12.294656 -52.380407 3.846079 5.191076 -65.538049 2.043883 3.789212 -44.409436 -0.000000 -0.000000 -0.000007 8.077793 -0.486891 -3.806276 7.694746 17.803448 -62.583418 3.588518 5.404495 -70.813646 2.129690 4.788514 -45.641499 0.000003 0.000000 0.000005 -8.207789 -6.751661 -1.599560 -1.426096 -4.024339 8.140791 12.323758 -5.832214 3.385550 -11.432285 -8.489225 -5.668218 -0.501957 0.000002 0.000002 -0.000000 -0.000002 -0.000000 8.207793 -6.751711 -1.599556 -21.470954 11.824452 12.269358 24.771657 0.353771 1.816497 -3.074681 3.000532 -3.677438 -1.720639 0.000009 0.000001 0.000000 0.000000 -0.000000 
5.139115 101.923477 2.936529 -0.350240 11.024694 -4.957705 -0.000006 10.181575 0.131520 1.568946 -2.661096 2.494442 1.370533 -2.579479 4.914060 1.347108 -2.064934 4.818245 0.000002 16.740410 -2.049034 5.292552 -3.751753 -6.153654 0.000000 9.617901 1.685009 37.321926 -14.037075 2.534487 0.000002 22.037367 7.501104 0.000010 0.000002 0.000000 -4.569968 11.014957 -2.160886 2.262104 3.317808 0.595049 36.909615 -12.886412 68.831990 -0.000026 115.844762 -0.000018 0.716380 21.371404 -20.044029 -2.464808 -1.573978 2.681845 18.671779 -0.303975 -11.105030 0.926931 -31.768904 3.264698 1.625893 -7.722553 1.317036 0.000002 -0.000002 0.000007 -9.108288 -0.517860 2.259823 0.342744 -4.694282 7.844133 0.383367 -2.795066 20.565884 -0.193215 -0.226564 13.843917 -0.000000 -0.000000 0.000004 -9.532500 -0.000041 -0.000045 0.927373 -8.822601 15.817943 0.898725 -3.903217 33.429773 0.215902 -1.726726 15.906498 0.000001 0.000001 0.000004 -9.103585 -0.043081 -1.865148 2.545339 -11.654504 26.895000 1.717139 -3.912044 40.236849 -0.151644 0.022714 17.820694 -0.000000 -0.000000 -0.000002 -8.076700 -0.486714 -3.806299 5.545283 -15.980319 36.930297 1.266855 -4.028224 45.642172 -0.765325 -0.312861 22.128951 -0.000002 0.000001 -0.000002 4.570449 11.014736 -2.160852 -1.402871 -22.059163 -23.898902 -14.738105 -27.533252 -16.755272 0.000037 -140.975665 0.000152 -36.444896 15.956673 16.161066 2.466123 -1.576209 2.681731 18.639663 0.201070 11.067486 0.957391 31.893046 -3.237410 1.818106 8.673904 -0.462070 0.000001 -0.000001 0.000001 9.109314 -0.518073 2.259857 1.217126 7.021613 -32.932099 1.763941 4.932383 -45.658712 0.919591 3.164338 -35.198721 -0.000001 -0.000009 -0.000006 9.533426 -0.000002 0.000039 2.693240 10.477450 -41.099745 2.679497 5.755404 -58.611998 1.277547 3.711570 -37.328452 -0.000000 -0.000002 0.000004 9.104520 -0.043047 -1.865081 5.276798 12.297470 -52.367890 3.845062 5.190718 -65.527162 2.043014 3.788483 -44.397920 0.000002 -0.000011 0.000006 8.077814 -0.486906 -3.806272 7.698527 17.800462 -62.571909 3.587422 5.404037 -70.801618 2.128778 4.787799 -45.629963 -0.000001 -0.000002 -0.000005 -8.207789 -6.751665 -1.599560 -1.292795 -4.045643 8.247422 12.231023 -5.849643 3.344922 -11.402376 -8.444439 -5.794697 -0.500142 -0.000003 0.000000 0.000000 -0.000001 -0.000000 8.207793 -6.751712 -1.599555 -21.451751 11.846004 12.376883 24.818884 0.293473 1.800948 -2.970177 3.001258 -3.691561 -1.864589 0.000009 0.000001 -0.000000 -0.000001 -0.000000 
5.027812 101.931648 2.921486 -0.423190 11.085478 -4.978691 -0.000006 10.181593 0.131519 1.538935 -2.612402 2.507560 1.305447 -2.488254 4.918980 1.282480 -1.973381 4.823176 0.000002 16.740372 -2.049034 5.219761 -3.810116 -6.166617 -0.000001 9.617878 1.685004 37.366210 -14.330671 2.830312 0.000000 22.037338 7.501096 -0.000006 0.000001 0.000001 -4.569966 11.014911 -2.160883 2.294834 3.376961 0.278601 36.956490 -12.620236 69.422289 -0.000043 115.111091 0.000035 -0.015783 19.465609 -19.855215 -2.464804 -1.573996 2.681876 18.671782 -0.303980 -11.105037 0.926920 -31.768938 3.264693 1.625910 -7.722561 1.317050 -0.000003 -0.000006 -0.000001 -9.108286 -0.517875 2.259852 0.342741 -4.694288 7.844130 0.383373 -2.795072 20.565898 -0.193225 -0.226553 13.843913 0.000002 0.000000 -0.000001 -9.532501 -0.000063 -0.000012 0.927344 -8.822593 15.817948 0.898746 -3.903215 33.429784 0.215891 -1.726731 15.906489 -0.000001 0.000004 0.000006 -9.103601 -0.043081 -1.865118 2.545341 -11.654498 26.894980 1.717118 -3.912023 40.236853 -0.151648 0.022696 17.820689 -0.000000 0.000002 -0.000002 -8.076693 -0.486716 -3.806261 5.545269 -15.980341 36.930317 1.266874 -4.028212 45.642165 -0.765326 -0.312879 22.128956 -0.000000 -0.000000 -0.000002 4.570450 11.014699 -2.160855 -1.322964 -22.157634 -23.531276 -14.881746 -27.317849 -16.049346 0.000027 -142.820826 0.000149 -36.192271 18.756403 14.270349 2.466131 -1.576187 2.681725 18.639665 0.201089 11.067481 0.957398 31.893036 -3.237407 1.818109 8.673913 -0.462077 -0.000002 -0.000002 0.000002 9.109315 -0.518042 2.259869 1.204829 7.005253 -32.743042 1.750329 4.919108 -45.469799 0.909197 3.148355 -35.010399 -0.000001 0.000011 -0.000009 9.533427 0.000007 0.000029 2.677891 10.468110 -40.909821 2.663495 5.745218 -58.421442 1.265738 3.696974 -37.139939 0.000000 0.000006 0.000003 9.104544 -0.043032 -1.865094 5.259021 12.299420 -52.176112 3.827183 5.184604 -65.337351 2.028726 3.776484 -44.209376 -0.000001 0.000004 0.000003 8.077791 -0.486878 -3.806272 7.681974 17.791405 -62.378813 3.569851 5.396941 -70.612203 2.113934 4.775908 -45.441003 0.000001 -0.000001 0.000000 -8.207788 -6.751653 -1.599560 -1.145089 -4.075200 8.377566 12.066718 -5.852001 3.326758 -11.333265 -8.466686 -5.915881 -0.498571 -0.000001 0.000001 0.000000 0.000000 -0.000000 8.207789 -6.751692 -1.599559 -21.470601 11.822391 12.477384 24.867436 0.214888 1.826430 -2.817212 2.995165 -3.718859 -2.033667 0.000003 -0.000000 -0.000000 -0.000001 -0.000000 
